<?xml version="1.0" encoding="UTF-8"?>
<!DOCTYPE svg PUBLIC "-//W3C//DTD SVG 1.1//EN" "http://www.w3.org/Graphics/SVG/1.1/DTD/svg11.dtd">
<!-- Creator: CorelDRAW 2020 (64-Bit) -->
<svg xmlns="http://www.w3.org/2000/svg" xml:space="preserve" width="594mm" height="420mm" version="1.1" style="shape-rendering:geometricPrecision; text-rendering:geometricPrecision; image-rendering:optimizeQuality; fill-rule:evenodd; clip-rule:evenodd"
viewBox="0 0 59400 42000"
 xmlns:xlink="http://www.w3.org/1999/xlink"
 xmlns:xodm="http://www.corel.com/coreldraw/odm/2003">
 <defs>
  <style type="text/css">
   <![CDATA[
    .str0 {stroke:#6673D1;stroke-width:141.11;stroke-miterlimit:22.9256}
    .str1 {stroke:#6673D1;stroke-width:282.22;stroke-miterlimit:22.9256}
    .str2 {stroke:#6673D1;stroke-width:176.39;stroke-miterlimit:22.9256}
    .fil1 {fill:none}
    .fil0 {fill:#6673D1}
   ]]>
  </style>
 </defs>
 <g id="Слой_x0020_1">
  <metadata id="CorelCorpID_0Corel-Layer"/>
  <rect class="fil0" x="29417.39" y="15819.78" width="317.5" height="21343.06"/>
  <rect class="fil0" x="26448.26" y="23439.75" width="317.5" height="11218.33"/>
  <rect class="fil0" x="22224.8" y="23915.97" width="317.5" height="7849.34"/>
  <rect class="fil0" x="32570.65" y="22892.91" width="317.5" height="6967.39"/>
  <rect class="fil0" x="34228.71" y="28255.13" width="317.5" height="5838.5"/>
  <rect class="fil0" x="36803.99" y="22963.46" width="317.5" height="8660.72"/>
  <rect class="fil0" x="39659.17" y="21905.13" width="158.75" height="5326.95"/>
  <rect class="fil0" x="35823.91" y="17019.12" width="158.75" height="8625.46"/>
  <rect class="fil0" x="30816.82" y="17618.84" width="158.75" height="8625.46"/>
  <rect class="fil0" x="23296.12" y="18042.17" width="158.75" height="8625.46"/>
  <rect class="fil0" x="19439.73" y="22998.71" width="158.75" height="4656.7"/>
  <rect class="fil0" x="24313.37" y="10686.77" width="158.75" height="8043.36"/>
  <rect class="fil0" x="27553.65" y="9240.38" width="158.75" height="8431.42"/>
  <rect class="fil0" x="32482.54" y="9769.54" width="158.75" height="8819.49"/>
  <rect class="fil0" x="34705.04" y="10792.6" width="158.75" height="7020.32"/>
  <rect class="fil0" x="28536.7" y="8711.21" width="158.75" height="5362.26"/>
  <rect class="fil0" x="27628.92" y="20493.99" width="158.75" height="8819.46"/>
  <line class="fil1 str0" x1="27684.55" y1="29264.83" x2="29446.36" y2= "31179.31" />
  <line class="fil1 str0" x1="30868.65" y1="26196.49" x2="32630.46" y2= "28110.97" />
  <line class="fil1 str0" x1="35876.77" y1="25596.92" x2="36907.52" y2= "26716.99" />
  <line class="fil1 str0" x1="27607.79" y1="17622.19" x2="29490.96" y2= "19668.55" />
  <line class="fil1 str0" x1="34756.33" y1="17765.51" x2="35902.49" y2= "19011" />
  <line class="fil1 str0" x1="17977.05" y1="24121.94" x2="19483.48" y2= "25758.93" />
  <line class="fil1 str0" x1="32588.04" y1="18527.15" x2="30942.04" y2= "20315.8" />
  <line class="fil1 str0" x1="28642.41" y1="14025.42" x2="27655.15" y2= "15098.24" />
  <line class="fil1 str0" x1="41746.83" y1="22536.24" x2="39751.65" y2= "24704.32" />
  <line class="fil1 str0" x1="39749.01" y1="26527.03" x2="36954.42" y2= "29563.79" />
  <line class="fil1 str0" x1="23401.46" y1="26616.31" x2="22304" y2= "27808.88" />
  <line class="fil1 str0" x1="24419.32" y1="18681.26" x2="23347.09" y2= "19846.41" />
  <line class="fil1 str1" x1="29574.4" y1="32899.73" x2="32781.57" y2= "29748.35" />
  <line class="fil1 str1" x1="23934.33" y1="33621.14" x2="24975.03" y2= "32598.55" />
  <rect class="fil0" x="24815.72" y="29319.03" width="317.5" height="5026.96"/>
  <line class="fil1 str1" x1="35739.66" y1="32899.71" x2="34429.47" y2= "31612.3" />
  <line class="fil1 str1" x1="28936.58" y1="36900.63" x2="26550.88" y2= "34556.43" />
  <line class="fil1 str0" x1="19478.1" y1="27576.12" x2="22355.13" y2= "30702.47" />
  <circle class="fil0" cx="27694.61" cy="20415.75" r="410.1"/>
  <circle class="fil0" cx="26600.17" cy="23145.35" r="410.1"/>
  <circle class="fil0" cx="23355.8" cy="17982.49" r="410.1"/>
  <circle class="fil0" cx="22383.55" cy="23825.97" r="410.1"/>
  <circle class="fil0" cx="19508.16" cy="22939.03" r="410.1"/>
  <circle class="fil0" cx="29576.14" cy="15819.78" r="410.1"/>
  <circle class="fil0" cx="32690.65" cy="22642.91" r="410.1"/>
  <circle class="fil0" cx="34377.46" cy="28145.13" r="410.1"/>
  <circle class="fil0" cx="36969.41" cy="22757.34" r="410.1"/>
  <circle class="fil0" cx="39749.17" cy="21905.13" r="410.1"/>
  <circle class="fil0" cx="35873.29" cy="17019.12" r="410.1"/>
  <circle class="fil0" cx="24939.19" cy="29160.28" r="410.1"/>
  <circle class="fil1 str2" cx="26600.17" cy="23145.35" r="769.5"/>
  <circle class="fil1 str2" cx="27694.61" cy="20415.75" r="769.5"/>
  <circle class="fil1 str2" cx="23335.8" cy="17962.49" r="769.5"/>
  <circle class="fil1 str2" cx="22383.55" cy="23825.97" r="769.5"/>
  <circle class="fil1 str2" cx="19508.16" cy="22939.03" r="769.5"/>
  <circle class="fil1 str2" cx="32690.65" cy="22642.91" r="769.5"/>
  <circle class="fil1 str2" cx="29576.14" cy="15819.78" r="769.5"/>
  <circle class="fil1 str2" cx="35903.29" cy="17019.12" r="769.5"/>
  <circle class="fil1 str2" cx="36969.41" cy="22757.34" r="769.5"/>
  <circle class="fil1 str2" cx="39749.17" cy="21905.13" r="769.5"/>
  <circle class="fil1 str2" cx="34377.46" cy="28145.13" r="769.5"/>
  <circle class="fil1 str2" cx="24939.19" cy="29160.28" r="769.5"/>
  <circle class="fil0" cx="30896.2" cy="17618.84" r="410.1"/>
  <circle class="fil1 str2" cx="30896.2" cy="17618.84" r="769.5"/>
  <path class="fil0" d="M16355.34 13950.6c1.53,-1537.06 -32.92,-1353.45 398.29,-1385.91 4019.1,-302.5 8056.7,-1314.61 11420.05,-3427.1 260.38,-163.55 474.1,-309.15 727.45,-477.9 253.6,-168.92 439.51,-335.21 657.63,-495.81 1180.32,836.6 1303.59,965.01 2660.33,1684.04 2859.84,1515.64 7171.01,2476.01 10507.47,2610.29 104.66,3573.73 -27.91,6054.67 -1105.1,9802.83 -1320.63,4595.2 -3849.91,8694.79 -7353.72,11680.72 -148.58,126.61 -327.54,263.79 -482.34,386.32 -425.73,337.11 -809.81,633.89 -1284.9,945.33 -464.87,304.71 -2436.53,1488.41 -2878.38,1557.36 -674.68,105.27 -3818.1,-2098.15 -4577.62,-2692.23l-1437.5 -1280.78c-382.94,-356.14 -1235.51,-1311 -1588.51,-1750.61 -3515.91,-4378.15 -5661.58,-10354.85 -5663.61,-16364.44l0.46 -792.11zm-386.98 -1056.15c0,1879.51 -30.22,2563.2 136.58,4443.4 237.73,2679.86 835.45,4717.3 1683.97,7158.14 1071.5,3082.54 3216.82,6071.44 5406.7,8498.57l880.16 857.42c1212.57,1042.11 2522.65,1997.73 3949.6,2747.29 231.87,121.76 1379.41,686.74 1592.42,657.15 494.87,-68.72 2350.19,-1163.32 2929.98,-1540.46 1789.86,-1164.28 3023.31,-2374.87 4426.43,-3910.26 95.89,-104.92 170.11,-200.31 262.59,-315.87 985.49,-1231.55 886.76,-1118.83 1877.65,-2612.57 1172.83,-1767.93 2138.36,-4153.41 2782.18,-6130.66 463.13,-1422.4 1013.12,-4015.98 1129.46,-5498.88 156.43,-1994.09 138.71,-2532.73 138.71,-4529.29 0,-751.98 -413.76,-673.12 -1577,-749.66 -1657.08,-109.05 -4310.8,-638.09 -5859.21,-1148.07 -558.59,-183.96 -1183.8,-379.32 -1720.72,-609.4 -1295.21,-555.06 -1873.08,-794.64 -3074.67,-1576.66 -1945.09,-1265.95 -722.8,-1188.82 -3527.98,500.73 -448.96,270.38 -1064.65,576.1 -1536.27,789.34 -3000.23,1356.46 -6084.01,2018.69 -9405.49,2264.61 -419.84,31.08 -495.09,273.49 -495.09,705.13z"/>
 </g>
</svg>